# xmcd
# 
# Track frame offsets:
#     182
#     17027
#     29657
#     47207
#     68817
#     77337
#     94925
#     107712
#     124145
#     152547
#     167122
# 
# Disc length: 2371
# 
# Revision: 9
# Processed by: cddbd v1.5.2PL0 Copyright (c) Steve Scherf et al.
# Submitted via: fre:ac v1.0.31
# 
DISCID=8809410b
DTITLE=Jean-Jacques_GOLDMAN - Entre_Gris_Clair_Et_Gris_Foncé_CD2
DYEAR=1987
DGENRE=Pop
TTITLE0=Filles faciles
TTITLE1=Je commence demain
TTITLE2=Elle a fait un bébé toute seule
TTITLE3=Quelque part, quelqu'un
TTITLE4=Qu'elle soit elle
TTITLE5=Doux
TTITLE6=Reprendre c'est voler
TTITLE7=Il y a
TTITLE8=Peur de rien blues
TTITLE9=Il me restera
TTITLE10=Appartenir
EXTD=YEAR: 1987
EXTT0=
EXTT1=
EXTT2=
EXTT3=
EXTT4=
EXTT5=
EXTT6=
EXTT7=
EXTT8=
EXTT9=
EXTT10=
PLAYORDER=
